<mxfile host="app.diagrams.net" modified="2024-07-03T06:13:21.807Z" agent="Mozilla/5.0 (Windows NT 10.0; Win64; x64) AppleWebKit/537.36 (KHTML, like Gecko) Chrome/124.0.0.0 YaBrowser/24.6.0.0 Safari/537.36" etag="_TGnwwzhLEt06_qHupFf" version="24.6.4" type="device">
  <diagram name="Страница — 1" id="03QM6S0Obs98npJGhOze">
    <mxGraphModel dx="1431" dy="821" grid="1" gridSize="10" guides="1" tooltips="1" connect="1" arrows="1" fold="1" page="1" pageScale="1" pageWidth="827" pageHeight="1169" math="0" shadow="0">
      <root>
        <mxCell id="0" />
        <mxCell id="1" parent="0" />
        <mxCell id="gtKsq_7yR4WFfJ-1jmiD-1" value="" style="rounded=0;whiteSpace=wrap;html=1;" vertex="1" parent="1">
          <mxGeometry x="400" y="330" width="120" height="60" as="geometry" />
        </mxCell>
        <mxCell id="gtKsq_7yR4WFfJ-1jmiD-2" value="Отмененный заказ" style="text;strokeColor=none;align=center;fillColor=none;html=1;verticalAlign=middle;whiteSpace=wrap;rounded=0;" vertex="1" parent="1">
          <mxGeometry x="430" y="340" width="60" height="30" as="geometry" />
        </mxCell>
        <mxCell id="gtKsq_7yR4WFfJ-1jmiD-3" value="" style="rounded=0;whiteSpace=wrap;html=1;" vertex="1" parent="1">
          <mxGeometry x="580" y="420" width="120" height="60" as="geometry" />
        </mxCell>
        <mxCell id="gtKsq_7yR4WFfJ-1jmiD-4" value="Физическое лицо" style="text;strokeColor=none;align=center;fillColor=none;html=1;verticalAlign=middle;whiteSpace=wrap;rounded=0;" vertex="1" parent="1">
          <mxGeometry x="610" y="430" width="60" height="30" as="geometry" />
        </mxCell>
        <mxCell id="gtKsq_7yR4WFfJ-1jmiD-5" value="" style="rounded=0;whiteSpace=wrap;html=1;" vertex="1" parent="1">
          <mxGeometry x="570" y="520" width="120" height="60" as="geometry" />
        </mxCell>
        <mxCell id="gtKsq_7yR4WFfJ-1jmiD-6" value="Компания" style="text;strokeColor=none;align=center;fillColor=none;html=1;verticalAlign=middle;whiteSpace=wrap;rounded=0;" vertex="1" parent="1">
          <mxGeometry x="600" y="530" width="60" height="30" as="geometry" />
        </mxCell>
        <mxCell id="gtKsq_7yR4WFfJ-1jmiD-7" value="" style="rounded=0;whiteSpace=wrap;html=1;" vertex="1" parent="1">
          <mxGeometry x="420" y="610" width="120" height="60" as="geometry" />
        </mxCell>
        <mxCell id="gtKsq_7yR4WFfJ-1jmiD-8" value="Товар" style="text;strokeColor=none;align=center;fillColor=none;html=1;verticalAlign=middle;whiteSpace=wrap;rounded=0;" vertex="1" parent="1">
          <mxGeometry x="450" y="620" width="60" height="30" as="geometry" />
        </mxCell>
        <mxCell id="gtKsq_7yR4WFfJ-1jmiD-22" style="edgeStyle=orthogonalEdgeStyle;rounded=0;orthogonalLoop=1;jettySize=auto;html=1;exitX=0.5;exitY=0;exitDx=0;exitDy=0;entryX=0.25;entryY=1;entryDx=0;entryDy=0;" edge="1" parent="1" source="gtKsq_7yR4WFfJ-1jmiD-9" target="gtKsq_7yR4WFfJ-1jmiD-15">
          <mxGeometry relative="1" as="geometry" />
        </mxCell>
        <mxCell id="gtKsq_7yR4WFfJ-1jmiD-9" value="" style="rounded=0;whiteSpace=wrap;html=1;" vertex="1" parent="1">
          <mxGeometry x="210" y="610" width="120" height="60" as="geometry" />
        </mxCell>
        <mxCell id="gtKsq_7yR4WFfJ-1jmiD-10" value="Сервис" style="text;strokeColor=none;align=center;fillColor=none;html=1;verticalAlign=middle;whiteSpace=wrap;rounded=0;" vertex="1" parent="1">
          <mxGeometry x="240" y="620" width="60" height="30" as="geometry" />
        </mxCell>
        <mxCell id="gtKsq_7yR4WFfJ-1jmiD-23" style="edgeStyle=orthogonalEdgeStyle;rounded=0;orthogonalLoop=1;jettySize=auto;html=1;exitX=1;exitY=0.5;exitDx=0;exitDy=0;entryX=0;entryY=0.5;entryDx=0;entryDy=0;" edge="1" parent="1" source="gtKsq_7yR4WFfJ-1jmiD-11" target="gtKsq_7yR4WFfJ-1jmiD-15">
          <mxGeometry relative="1" as="geometry" />
        </mxCell>
        <mxCell id="gtKsq_7yR4WFfJ-1jmiD-11" value="" style="rounded=0;whiteSpace=wrap;html=1;" vertex="1" parent="1">
          <mxGeometry x="30" y="550" width="120" height="60" as="geometry" />
        </mxCell>
        <mxCell id="gtKsq_7yR4WFfJ-1jmiD-12" value="Поставщик" style="text;strokeColor=none;align=center;fillColor=none;html=1;verticalAlign=middle;whiteSpace=wrap;rounded=0;" vertex="1" parent="1">
          <mxGeometry x="60" y="560" width="60" height="30" as="geometry" />
        </mxCell>
        <mxCell id="gtKsq_7yR4WFfJ-1jmiD-13" value="" style="rounded=0;whiteSpace=wrap;html=1;" vertex="1" parent="1">
          <mxGeometry x="40" y="430" width="120" height="60" as="geometry" />
        </mxCell>
        <mxCell id="gtKsq_7yR4WFfJ-1jmiD-14" value="Склад" style="text;strokeColor=none;align=center;fillColor=none;html=1;verticalAlign=middle;whiteSpace=wrap;rounded=0;" vertex="1" parent="1">
          <mxGeometry x="70" y="440" width="60" height="30" as="geometry" />
        </mxCell>
        <mxCell id="gtKsq_7yR4WFfJ-1jmiD-21" style="edgeStyle=orthogonalEdgeStyle;rounded=0;orthogonalLoop=1;jettySize=auto;html=1;exitX=0.5;exitY=1;exitDx=0;exitDy=0;entryX=0.5;entryY=0;entryDx=0;entryDy=0;" edge="1" parent="1" source="gtKsq_7yR4WFfJ-1jmiD-15" target="gtKsq_7yR4WFfJ-1jmiD-8">
          <mxGeometry relative="1" as="geometry" />
        </mxCell>
        <mxCell id="gtKsq_7yR4WFfJ-1jmiD-15" value="" style="rounded=0;whiteSpace=wrap;html=1;" vertex="1" parent="1">
          <mxGeometry x="310" y="480" width="120" height="60" as="geometry" />
        </mxCell>
        <mxCell id="gtKsq_7yR4WFfJ-1jmiD-16" value="заказ" style="text;strokeColor=none;align=center;fillColor=none;html=1;verticalAlign=middle;whiteSpace=wrap;rounded=0;" vertex="1" parent="1">
          <mxGeometry x="340" y="490" width="60" height="30" as="geometry" />
        </mxCell>
        <mxCell id="gtKsq_7yR4WFfJ-1jmiD-17" value="" style="endArrow=classic;html=1;rounded=0;entryX=0;entryY=0.25;entryDx=0;entryDy=0;" edge="1" parent="1" target="gtKsq_7yR4WFfJ-1jmiD-3">
          <mxGeometry width="50" height="50" relative="1" as="geometry">
            <mxPoint x="500" y="390" as="sourcePoint" />
            <mxPoint x="570" y="490" as="targetPoint" />
          </mxGeometry>
        </mxCell>
        <mxCell id="gtKsq_7yR4WFfJ-1jmiD-18" value="" style="endArrow=classic;html=1;rounded=0;entryX=0;entryY=0.5;entryDx=0;entryDy=0;exitX=0.5;exitY=1;exitDx=0;exitDy=0;" edge="1" parent="1" source="gtKsq_7yR4WFfJ-1jmiD-1" target="gtKsq_7yR4WFfJ-1jmiD-5">
          <mxGeometry width="50" height="50" relative="1" as="geometry">
            <mxPoint x="510" y="400" as="sourcePoint" />
            <mxPoint x="590" y="445" as="targetPoint" />
          </mxGeometry>
        </mxCell>
        <mxCell id="gtKsq_7yR4WFfJ-1jmiD-19" value="" style="endArrow=classic;html=1;rounded=0;entryX=0;entryY=0.75;entryDx=0;entryDy=0;exitX=1;exitY=0.25;exitDx=0;exitDy=0;" edge="1" parent="1" source="gtKsq_7yR4WFfJ-1jmiD-15" target="gtKsq_7yR4WFfJ-1jmiD-3">
          <mxGeometry width="50" height="50" relative="1" as="geometry">
            <mxPoint x="430" y="515" as="sourcePoint" />
            <mxPoint x="510" y="560" as="targetPoint" />
          </mxGeometry>
        </mxCell>
        <mxCell id="gtKsq_7yR4WFfJ-1jmiD-20" value="" style="endArrow=classic;html=1;rounded=0;entryX=0;entryY=0.75;entryDx=0;entryDy=0;exitX=1;exitY=0.75;exitDx=0;exitDy=0;" edge="1" parent="1" source="gtKsq_7yR4WFfJ-1jmiD-15" target="gtKsq_7yR4WFfJ-1jmiD-5">
          <mxGeometry width="50" height="50" relative="1" as="geometry">
            <mxPoint x="430" y="522.5" as="sourcePoint" />
            <mxPoint x="510" y="567.5" as="targetPoint" />
          </mxGeometry>
        </mxCell>
        <mxCell id="gtKsq_7yR4WFfJ-1jmiD-24" style="edgeStyle=orthogonalEdgeStyle;rounded=0;orthogonalLoop=1;jettySize=auto;html=1;exitX=1;exitY=0.5;exitDx=0;exitDy=0;entryX=0.111;entryY=-0.002;entryDx=0;entryDy=0;entryPerimeter=0;" edge="1" parent="1" source="gtKsq_7yR4WFfJ-1jmiD-13" target="gtKsq_7yR4WFfJ-1jmiD-15">
          <mxGeometry relative="1" as="geometry" />
        </mxCell>
      </root>
    </mxGraphModel>
  </diagram>
</mxfile>
